<svg width="39" height="38" viewBox="0 0 39 38" fill="none" xmlns="http://www.w3.org/2000/svg">
<path d="M0.5 2.72175C0.5 1.21838 1.74925 0 3.29062 0H35.7094C37.2507 0 38.5 1.21838 38.5 2.72175V35.2783C38.5 36.7816 37.2507 38 35.7094 38H3.29062C1.74925 38 0.5 36.7816 0.5 35.2783V2.72175ZM12.2396 31.8108V14.6514H6.53725V31.8108H12.2396ZM9.38963 12.3073C11.3775 12.3073 12.6149 10.9915 12.6149 9.34325C12.5792 7.65938 11.3799 6.37925 9.42763 6.37925C7.47538 6.37925 6.2 7.66175 6.2 9.34325C6.2 10.9915 7.43738 12.3073 9.35162 12.3073H9.38963V12.3073ZM21.0461 31.8108V22.2276C21.0461 21.7146 21.0841 21.2016 21.2361 20.8359C21.647 19.8122 22.5851 18.7506 24.1621 18.7506C26.226 18.7506 27.0501 20.3229 27.0501 22.6314V31.8108H32.7525V21.9688C32.7525 16.6962 29.9405 14.2453 26.188 14.2453C23.1622 14.2453 21.8061 15.9077 21.0461 17.0786V17.138H21.0081C21.0207 17.1182 21.0334 17.0984 21.0461 17.0786V14.6514H15.3461C15.4174 16.2616 15.3461 31.8108 15.3461 31.8108H21.0461Z" fill="#25282B"/>
</svg>
