<svg width="43" height="32" viewBox="0 0 43 32" fill="none" xmlns="http://www.w3.org/2000/svg">
<path fill-rule="evenodd" clip-rule="evenodd" d="M0.63125 4.14667C0.895898 2.96865 1.54647 1.91683 2.47642 1.16349C3.40637 0.410143 4.56057 -8.13185e-05 5.75 1.2091e-08H37.25C38.4394 -8.13185e-05 39.5936 0.410143 40.5236 1.16349C41.4535 1.91683 42.1041 2.96865 42.3687 4.14667L21.5 17.104L0.63125 4.14667ZM0.5 7.192V26.136L15.7329 16.648L0.5 7.192ZM18.2476 18.2133L1.00137 28.952C1.42748 29.8648 2.10001 30.6358 2.94068 31.1754C3.78135 31.715 4.75558 32.001 5.75 32H37.25C38.2443 32.0002 39.2181 31.7136 40.0583 31.1736C40.8985 30.6335 41.5705 29.8622 41.996 28.9493L24.7497 18.2107L21.5 20.2293L18.2476 18.2107V18.2133ZM27.2671 16.6507L42.5 26.136V7.192L27.2671 16.648V16.6507Z" fill="#25282B"/>
</svg>
