<svg width="39" height="38" viewBox="0 0 39 38" fill="none" xmlns="http://www.w3.org/2000/svg">
<path d="M25.5 19C25.5 20.1867 25.1481 21.3467 24.4888 22.3334C23.8295 23.3201 22.8925 24.0892 21.7961 24.5433C20.6997 24.9974 19.4933 25.1162 18.3295 24.8847C17.1656 24.6532 16.0965 24.0818 15.2574 23.2426C14.4182 22.4035 13.8468 21.3344 13.6153 20.1705C13.3838 19.0067 13.5026 17.8003 13.9567 16.7039C14.4108 15.6075 15.1799 14.6705 16.1666 14.0112C17.1533 13.3519 18.3133 13 19.5 13C21.0907 13.0018 22.6158 13.6346 23.7406 14.7594C24.8654 15.8842 25.4982 17.4093 25.5 19ZM38.25 10.75V27.25C38.2468 30.0338 37.1396 32.7027 35.1711 34.6711C33.2027 36.6396 30.5338 37.7468 27.75 37.75H11.25C8.4662 37.7468 5.79733 36.6396 3.82889 34.6711C1.86044 32.7027 0.753176 30.0338 0.75 27.25V10.75C0.753176 7.9662 1.86044 5.29733 3.82889 3.32889C5.79733 1.36044 8.4662 0.253176 11.25 0.25H27.75C30.5338 0.253176 33.2027 1.36044 35.1711 3.32889C37.1396 5.29733 38.2468 7.9662 38.25 10.75V10.75ZM28.5 19C28.5 17.22 27.9722 15.4799 26.9832 13.9999C25.9943 12.5198 24.5887 11.3663 22.9442 10.6851C21.2996 10.0039 19.49 9.82567 17.7442 10.1729C15.9984 10.5202 14.3947 11.3774 13.136 12.636C11.8774 13.8947 11.0202 15.4984 10.6729 17.2442C10.3257 18.99 10.5039 20.7996 11.1851 22.4442C11.8663 24.0887 13.0198 25.4943 14.4999 26.4832C15.9799 27.4722 17.72 28 19.5 28C21.8861 27.9973 24.1738 27.0482 25.861 25.361C27.5482 23.6738 28.4973 21.3861 28.5 19V19ZM31.5 9.25C31.5 8.80499 31.368 8.36998 31.1208 7.99997C30.8736 7.62996 30.5222 7.34157 30.111 7.17127C29.6999 7.00097 29.2475 6.95642 28.811 7.04323C28.3746 7.13005 27.9737 7.34434 27.659 7.65901C27.3443 7.97368 27.13 8.37459 27.0432 8.81105C26.9564 9.2475 27.001 9.6999 27.1713 10.111C27.3416 10.5222 27.63 10.8736 28 11.1208C28.37 11.368 28.805 11.5 29.25 11.5C29.8467 11.5 30.419 11.2629 30.841 10.841C31.2629 10.419 31.5 9.84674 31.5 9.25Z" fill="#25282B"/>
</svg>
